<svg xmlns="http://www.w3.org/2000/svg" width="74px" height="70px" viewBox="0 0 74.97 70.55">
  <defs>
    <style>
      .a {
        fill: #fff;
      }

      .b {
        fill: #8ab8d5;
      }

      .c {
        fill: #fff;
      }
    </style>
  </defs>
  <title>icon-burger-(not-a-menu)</title>
  <g>
    <path class="a" d="M305,386.89c9.33,0,18.67.1,28-.07,2.51,0,3.09.57,3.07,3.07-0.13,15.33-.07,30.67-0.07,46a9.2,9.2,0,0,0-6.36-2.19q-30.64.14-61.27,0a9.76,9.76,0,0,0-6.36,2.19c0-15.33.07-30.67-.07-46,0-2.5.56-3.12,3.07-3.07,9.33,0.17,18.67.07,28,.07-1.32,1.5-3.29,1.39-5,2-12.29,4.26-20.2,12.27-22.48,25.48-0.68,3.91.77,4.66,4.12,4.65,19.64-.06,39.29-0.09,58.94,0,3.72,0,4.8-1.6,4.14-4.89A34.12,34.12,0,0,0,325,398.18C319.65,391.94,312.18,389.75,305,386.89Zm29.25,36.68a3.11,3.11,0,0,0-.66-1.26c-1.13-.68-1.94.18-2.5,0.92-2.41,3.17-4.67,3.18-7.1,0-1.41-1.84-3.13-1.86-4.58,0-2.21,2.76-4.25,3.39-6.64.16-1.53-2.06-3.41-2-4.94.06-2.23,2.95-4.25,2.53-6.24-.18s-3.75-2.08-5.52.21-3.74,3-5.86.19c-1.83-2.47-3.86-2.31-5.68.06s-3.56,2.27-5.56,0c-1-1.18-2.36-3.8-4.31-1.66-3.05,3.35-5.62,4.9-8.87.34-0.62-.87-2.82-1-2.45.61,0.64,2.8,3.42,4.36,5.51,6.18,1.9,1.66,3-.44,4-1.52,1.8-1.87,3.49-2.62,5.33-.22,2.32,3,4.5,2.86,6.76-.05,1.63-2.1,3.39-1.9,4.91.09,2.16,2.81,4.13,2.68,6.37.06,1.79-2.1,3.64-1.88,5.32.31,2,2.65,4.1,2.47,6-.1s3.57-1.75,5.27.09c2.24,2.42,4.41,2.73,6.55-.1,1.83-2.43,3.46-1.8,5.2.2,1,1.21,2.34,2.91,4.16,1.5A18.59,18.59,0,0,0,334.25,423.57Z" transform="translate(-261.52 -386.82)"/>
    <path class="b" d="M262,435.89a9.76,9.76,0,0,1,6.36-2.19q30.64,0.15,61.27,0a9.2,9.2,0,0,1,6.36,2.19v8c-1.32,1-2.92,1.75-3,3.61-0.32,4.64-3.44,7.15-7,9.39H272c-3.56-2.25-6.29-5.06-6.88-9.5-0.24-1.77-1.7-2.67-3.12-3.5v-8Zm37.13,10.18c-8.66,0-17.33,0-26,0-1.52,0-3.67-.79-4.2,1.51s0.71,3.83,2.54,5a8.5,8.5,0,0,0,4.76,1.22q22.74,0,45.48,0a8,8,0,0,0,6-2.07c1.23-1.2,2.37-2.72,1.86-4.38s-2.48-1.31-3.92-1.31C316.79,446.05,308,446.07,299.13,446.07Zm0.38-3c9.81,0,19.63,0,29.44,0,2.42,0,4.22-.2,4.11-3.41s-2.11-2.86-4.12-2.86H269.55c-2.22,0-4.47-.16-4.47,3.13s2.29,3.11,4.49,3.11h29.94Z" transform="translate(-261.52 -386.82)"/>
    <path class="b" d="M305,386.89c7.18,2.86,14.65,5,20,11.29a34.12,34.12,0,0,1,7.72,15.95c0.66,3.29-.42,4.91-4.14,4.89-19.64-.11-39.29-0.08-58.94,0-3.35,0-4.8-.74-4.12-4.65,2.29-13.21,10.19-21.22,22.48-25.48,1.68-.58,3.65-0.47,5-2h12Zm-5.68,29.06c7.83,0,15.67-.19,23.49.06,6.75,0.21,8.07-.27,4.9-7.8-6.52-15.45-25.84-22.39-41.79-15.3-8,3.55-13.75,9.17-16.43,17.72-1.17,3.72-.71,5.53,3.83,5.39C282,415.76,290.65,415.95,299.32,415.95Z" transform="translate(-261.52 -386.82)"/>
    <path class="a" d="M262,443.89c1.42,0.83,2.88,1.74,3.12,3.5,0.59,4.44,3.33,7.25,6.88,9.5-3.33,0-8,1.3-9.63-.37s-0.37-6.3-.37-9.63v-3Z" transform="translate(-261.52 -386.82)"/>
    <path class="c" d="M326,456.89c3.52-2.24,6.64-4.75,7-9.39,0.13-1.86,1.73-2.66,3-3.61v3c0,3.33,1.3,8-.37,9.63S329.33,456.89,326,456.89Z" transform="translate(-261.52 -386.82)"/>
    <path class="b" d="M334.25,423.57a18.59,18.59,0,0,1-5.46,5.81c-1.81,1.42-3.11-.29-4.16-1.5-1.74-2-3.37-2.63-5.2-.2-2.14,2.83-4.32,2.52-6.55.1-1.71-1.85-3.43-2.56-5.27-.09s-4,2.75-6,.1c-1.68-2.19-3.53-2.41-5.32-.31-2.23,2.62-4.21,2.76-6.37-.06-1.52-2-3.28-2.18-4.91-.09-2.26,2.92-4.45,3.08-6.76.05-1.83-2.4-3.53-1.65-5.33.22-1,1.08-2.14,3.18-4,1.52-2.09-1.82-4.86-3.38-5.51-6.18-0.37-1.62,1.83-1.47,2.45-.61,3.25,4.56,5.82,3,8.87-.34,2-2.14,3.28.48,4.31,1.66,2,2.29,3.65,2.53,5.56,0s3.85-2.53,5.68-.06c2.12,2.86,4,2.24,5.86-.19s3.56-2.87,5.52-.21,4,3.13,6.24.18c1.53-2,3.41-2.12,4.94-.06,2.39,3.23,4.43,2.61,6.64-.16,1.45-1.81,3.17-1.79,4.58,0,2.43,3.17,4.69,3.16,7.1,0,0.56-.74,1.37-1.61,2.5-0.92A3.11,3.11,0,0,1,334.25,423.57Z" transform="translate(-261.52 -386.82)"/>
    <path class="a" d="M299.13,446.07c8.83,0,17.66,0,26.49,0,1.45,0,3.39-.45,3.92,1.31s-0.63,3.19-1.86,4.38a8,8,0,0,1-6,2.07q-22.74,0-45.48,0a8.5,8.5,0,0,1-4.76-1.22c-1.83-1.17-3-2.84-2.54-5s2.68-1.5,4.2-1.51C281.8,446,290.46,446.07,299.13,446.07Z" transform="translate(-261.52 -386.82)"/>
    <path class="c" d="M299.51,443H269.56c-2.19,0-4.49.21-4.49-3.11s2.25-3.13,4.47-3.13h59.39c2,0,4-.25,4.12,2.86s-1.69,3.42-4.11,3.41C319.13,443,309.32,443,299.51,443Z" transform="translate(-261.52 -386.82)"/>
    <path class="c" d="M299.32,415.95c-8.67,0-17.34-.19-26,0.07-4.54.14-5-1.67-3.83-5.39,2.68-8.55,8.44-14.17,16.43-17.72,16-7.09,35.28-.15,41.79,15.3,3.17,7.52,1.86,8-4.9,7.8C315,415.76,307.15,415.95,299.32,415.95Z" transform="translate(-261.52 -386.82)"/>
  </g>
</svg>
